<mxfile host="app.diagrams.net" modified="2023-06-25T00:52:14.104Z" agent="Mozilla/5.0 (Windows NT 10.0; Win64; x64) AppleWebKit/537.36 (KHTML, like Gecko) Chrome/113.0.0.0 Safari/537.36 OPR/99.0.0.0 (Edition std-1)" etag="cxDFK3QaMMUJj_-3bejO" version="21.5.0" type="device">
  <diagram name="Página-1" id="wjNduBhx-dxuaSxLJwK6">
    <mxGraphModel dx="2392" dy="892" grid="1" gridSize="10" guides="1" tooltips="1" connect="1" arrows="1" fold="1" page="1" pageScale="1" pageWidth="827" pageHeight="1169" math="0" shadow="0">
      <root>
        <mxCell id="0" />
        <mxCell id="1" parent="0" />
        <mxCell id="EYcOk7104BUGEE8Ki0IN-16" value="" style="edgeStyle=orthogonalEdgeStyle;rounded=0;orthogonalLoop=1;jettySize=auto;html=1;" edge="1" parent="1" source="EYcOk7104BUGEE8Ki0IN-1" target="EYcOk7104BUGEE8Ki0IN-15">
          <mxGeometry relative="1" as="geometry" />
        </mxCell>
        <mxCell id="EYcOk7104BUGEE8Ki0IN-20" value="" style="edgeStyle=orthogonalEdgeStyle;rounded=0;orthogonalLoop=1;jettySize=auto;html=1;" edge="1" parent="1" source="EYcOk7104BUGEE8Ki0IN-1" target="EYcOk7104BUGEE8Ki0IN-19">
          <mxGeometry relative="1" as="geometry" />
        </mxCell>
        <mxCell id="EYcOk7104BUGEE8Ki0IN-23" value="" style="edgeStyle=orthogonalEdgeStyle;rounded=0;orthogonalLoop=1;jettySize=auto;html=1;exitX=0;exitY=0.75;exitDx=0;exitDy=0;" edge="1" parent="1" source="EYcOk7104BUGEE8Ki0IN-1" target="EYcOk7104BUGEE8Ki0IN-21">
          <mxGeometry relative="1" as="geometry" />
        </mxCell>
        <mxCell id="EYcOk7104BUGEE8Ki0IN-25" style="edgeStyle=orthogonalEdgeStyle;rounded=0;orthogonalLoop=1;jettySize=auto;html=1;exitX=0;exitY=0.25;exitDx=0;exitDy=0;entryX=1;entryY=0.5;entryDx=0;entryDy=0;" edge="1" parent="1" source="EYcOk7104BUGEE8Ki0IN-1" target="EYcOk7104BUGEE8Ki0IN-24">
          <mxGeometry relative="1" as="geometry" />
        </mxCell>
        <mxCell id="EYcOk7104BUGEE8Ki0IN-27" style="edgeStyle=orthogonalEdgeStyle;rounded=0;orthogonalLoop=1;jettySize=auto;html=1;exitX=1;exitY=0.75;exitDx=0;exitDy=0;entryX=0;entryY=0.5;entryDx=0;entryDy=0;" edge="1" parent="1" source="EYcOk7104BUGEE8Ki0IN-1" target="EYcOk7104BUGEE8Ki0IN-17">
          <mxGeometry relative="1" as="geometry" />
        </mxCell>
        <mxCell id="EYcOk7104BUGEE8Ki0IN-28" style="edgeStyle=orthogonalEdgeStyle;rounded=0;orthogonalLoop=1;jettySize=auto;html=1;exitX=1;exitY=0.25;exitDx=0;exitDy=0;entryX=0;entryY=0.5;entryDx=0;entryDy=0;" edge="1" parent="1" source="EYcOk7104BUGEE8Ki0IN-1" target="EYcOk7104BUGEE8Ki0IN-26">
          <mxGeometry relative="1" as="geometry" />
        </mxCell>
        <mxCell id="EYcOk7104BUGEE8Ki0IN-33" style="edgeStyle=orthogonalEdgeStyle;rounded=0;orthogonalLoop=1;jettySize=auto;html=1;exitX=0.25;exitY=0;exitDx=0;exitDy=0;entryX=1;entryY=0.5;entryDx=0;entryDy=0;" edge="1" parent="1" source="EYcOk7104BUGEE8Ki0IN-1" target="EYcOk7104BUGEE8Ki0IN-31">
          <mxGeometry relative="1" as="geometry" />
        </mxCell>
        <mxCell id="EYcOk7104BUGEE8Ki0IN-38" style="edgeStyle=orthogonalEdgeStyle;rounded=0;orthogonalLoop=1;jettySize=auto;html=1;exitX=0.75;exitY=0;exitDx=0;exitDy=0;entryX=0;entryY=0.5;entryDx=0;entryDy=0;fontFamily=Helvetica;fontSize=12;fontColor=default;" edge="1" parent="1" source="EYcOk7104BUGEE8Ki0IN-1" target="EYcOk7104BUGEE8Ki0IN-32">
          <mxGeometry relative="1" as="geometry" />
        </mxCell>
        <mxCell id="EYcOk7104BUGEE8Ki0IN-39" style="edgeStyle=orthogonalEdgeStyle;rounded=0;orthogonalLoop=1;jettySize=auto;html=1;exitX=0.25;exitY=1;exitDx=0;exitDy=0;entryX=1;entryY=0.5;entryDx=0;entryDy=0;fontFamily=Helvetica;fontSize=12;fontColor=default;" edge="1" parent="1" source="EYcOk7104BUGEE8Ki0IN-1" target="EYcOk7104BUGEE8Ki0IN-30">
          <mxGeometry relative="1" as="geometry" />
        </mxCell>
        <mxCell id="EYcOk7104BUGEE8Ki0IN-40" style="edgeStyle=orthogonalEdgeStyle;rounded=0;orthogonalLoop=1;jettySize=auto;html=1;exitX=0.75;exitY=1;exitDx=0;exitDy=0;entryX=0;entryY=0.5;entryDx=0;entryDy=0;fontFamily=Helvetica;fontSize=12;fontColor=default;" edge="1" parent="1" source="EYcOk7104BUGEE8Ki0IN-1" target="EYcOk7104BUGEE8Ki0IN-29">
          <mxGeometry relative="1" as="geometry" />
        </mxCell>
        <mxCell id="EYcOk7104BUGEE8Ki0IN-1" value="Login" style="rounded=0;whiteSpace=wrap;html=1;fillColor=#3F334A;fontColor=#ffffff;strokeColor=#432D57;" vertex="1" parent="1">
          <mxGeometry x="353" y="372" width="120" height="60" as="geometry" />
        </mxCell>
        <mxCell id="EYcOk7104BUGEE8Ki0IN-15" value="Renderizar View" style="ellipse;whiteSpace=wrap;html=1;rounded=0;fillColor=#76608A;fontColor=#ffffff;strokeColor=#314354;" vertex="1" parent="1">
          <mxGeometry x="353" y="152" width="120" height="80" as="geometry" />
        </mxCell>
        <mxCell id="EYcOk7104BUGEE8Ki0IN-17" value="&lt;font color=&quot;#000000&quot;&gt;Tratar Erros da API&lt;/font&gt;" style="ellipse;whiteSpace=wrap;html=1;rounded=0;rotation=0;fillColor=#33FF99;fontColor=#ffffff;strokeColor=#314354;" vertex="1" parent="1">
          <mxGeometry x="564" y="412" width="120" height="80" as="geometry" />
        </mxCell>
        <mxCell id="EYcOk7104BUGEE8Ki0IN-19" value="Comunicar com API" style="ellipse;whiteSpace=wrap;html=1;rounded=0;rotation=0;fillColor=#2F85DA;fontColor=#ffffff;strokeColor=#314354;" vertex="1" parent="1">
          <mxGeometry x="353" y="572" width="120" height="80" as="geometry" />
        </mxCell>
        <mxCell id="EYcOk7104BUGEE8Ki0IN-21" value="Navegação" style="ellipse;whiteSpace=wrap;html=1;rounded=0;rotation=0;fillColor=#76608A;fontColor=#ffffff;strokeColor=#314354;" vertex="1" parent="1">
          <mxGeometry x="143" y="412" width="120" height="80" as="geometry" />
        </mxCell>
        <mxCell id="EYcOk7104BUGEE8Ki0IN-24" value="Gravar dados no Cache" style="ellipse;whiteSpace=wrap;html=1;rounded=0;rotation=0;fillColor=#76608A;fontColor=#ffffff;strokeColor=#314354;" vertex="1" parent="1">
          <mxGeometry x="143" y="302" width="120" height="80" as="geometry" />
        </mxCell>
        <mxCell id="EYcOk7104BUGEE8Ki0IN-26" value="&lt;font color=&quot;#000000&quot;&gt;Tratar Resposta da API&lt;/font&gt;" style="ellipse;whiteSpace=wrap;html=1;rounded=0;rotation=0;fillColor=#33FF99;fontColor=#ffffff;strokeColor=#314354;" vertex="1" parent="1">
          <mxGeometry x="564" y="302" width="120" height="80" as="geometry" />
        </mxCell>
        <mxCell id="EYcOk7104BUGEE8Ki0IN-29" value="Controlar Estado" style="ellipse;whiteSpace=wrap;html=1;rounded=0;rotation=0;fillColor=#76608A;fontColor=#ffffff;strokeColor=#314354;" vertex="1" parent="1">
          <mxGeometry x="493" y="511" width="120" height="80" as="geometry" />
        </mxCell>
        <mxCell id="EYcOk7104BUGEE8Ki0IN-30" value="&lt;font color=&quot;#000000&quot;&gt;Regras de Negócio&lt;/font&gt;" style="ellipse;whiteSpace=wrap;html=1;rounded=0;rotation=0;fillColor=#B0E3E6;strokeColor=#23445d;" vertex="1" parent="1">
          <mxGeometry x="213" y="511" width="120" height="80" as="geometry" />
        </mxCell>
        <mxCell id="EYcOk7104BUGEE8Ki0IN-31" value="&lt;font color=&quot;#000000&quot;&gt;Validar Email&lt;/font&gt;" style="ellipse;whiteSpace=wrap;html=1;rounded=0;rotation=0;fillColor=#FFFFCC;strokeColor=none;fontColor=#ffffff;" vertex="1" parent="1">
          <mxGeometry x="213" y="212" width="120" height="80" as="geometry" />
        </mxCell>
        <mxCell id="EYcOk7104BUGEE8Ki0IN-32" value="&lt;font color=&quot;#000000&quot;&gt;Validar Senha&lt;/font&gt;" style="ellipse;whiteSpace=wrap;html=1;rounded=0;rotation=0;fillColor=#FFFFCC;fontColor=#ffffff;strokeColor=none;" vertex="1" parent="1">
          <mxGeometry x="493" y="212" width="120" height="80" as="geometry" />
        </mxCell>
        <mxCell id="EYcOk7104BUGEE8Ki0IN-41" value="" style="rounded=0;whiteSpace=wrap;html=1;strokeColor=none;fontFamily=Helvetica;fontSize=12;fillColor=#33FF99;gradientColor=none;" vertex="1" parent="1">
          <mxGeometry x="847" y="333" width="369" height="140" as="geometry" />
        </mxCell>
        <mxCell id="EYcOk7104BUGEE8Ki0IN-42" value="Data" style="text;html=1;align=center;verticalAlign=middle;resizable=0;points=[];autosize=1;strokeColor=none;fillColor=none;fontSize=12;fontFamily=Helvetica;fontColor=default;" vertex="1" parent="1">
          <mxGeometry x="1178" y="307" width="50" height="30" as="geometry" />
        </mxCell>
        <mxCell id="EYcOk7104BUGEE8Ki0IN-43" value="&lt;font color=&quot;#000000&quot;&gt;Remote Authentication&lt;/font&gt;" style="rounded=0;whiteSpace=wrap;html=1;strokeColor=none;fontFamily=Helvetica;fontSize=12;fillColor=#99FFCC;strokeWidth=1;" vertex="1" parent="1">
          <mxGeometry x="1038" y="379" width="165" height="46" as="geometry" />
        </mxCell>
        <mxCell id="EYcOk7104BUGEE8Ki0IN-44" value="" style="rounded=0;whiteSpace=wrap;html=1;strokeColor=none;fontFamily=Helvetica;fontSize=12;fillColor=#fad9d5;" vertex="1" parent="1">
          <mxGeometry x="845" y="516" width="369" height="140" as="geometry" />
        </mxCell>
        <mxCell id="EYcOk7104BUGEE8Ki0IN-47" style="edgeStyle=orthogonalEdgeStyle;rounded=0;orthogonalLoop=1;jettySize=auto;html=1;entryX=0.5;entryY=0;entryDx=0;entryDy=0;fontFamily=Helvetica;fontSize=12;fontColor=default;strokeColor=#CCCC00;" edge="1" parent="1" source="EYcOk7104BUGEE8Ki0IN-43" target="EYcOk7104BUGEE8Ki0IN-46">
          <mxGeometry relative="1" as="geometry" />
        </mxCell>
        <mxCell id="EYcOk7104BUGEE8Ki0IN-45" value="Domain" style="text;html=1;align=center;verticalAlign=middle;resizable=0;points=[];autosize=1;strokeColor=none;fillColor=none;fontSize=12;fontFamily=Helvetica;fontColor=default;" vertex="1" parent="1">
          <mxGeometry x="1162" y="490" width="60" height="30" as="geometry" />
        </mxCell>
        <mxCell id="EYcOk7104BUGEE8Ki0IN-46" value="&lt;font color=&quot;#000000&quot;&gt;Authentication&lt;/font&gt;" style="rounded=1;whiteSpace=wrap;html=1;strokeColor=none;fontFamily=Helvetica;fontSize=12;fillColor=#94BFC2;dashed=1;strokeWidth=1;dashPattern=8 8;" vertex="1" parent="1">
          <mxGeometry x="942.5" y="556" width="174" height="60" as="geometry" />
        </mxCell>
        <mxCell id="EYcOk7104BUGEE8Ki0IN-48" value="&lt;font color=&quot;#000000&quot;&gt;HttpPostClient&lt;/font&gt;" style="rounded=1;whiteSpace=wrap;html=1;strokeColor=none;fontFamily=Helvetica;fontSize=12;fillColor=#99FFCC;dashed=1;strokeWidth=1;dashPattern=8 8;" vertex="1" parent="1">
          <mxGeometry x="860" y="377" width="154" height="50" as="geometry" />
        </mxCell>
        <mxCell id="EYcOk7104BUGEE8Ki0IN-49" value="" style="rounded=0;whiteSpace=wrap;html=1;strokeColor=none;fontFamily=Helvetica;fontSize=12;fillColor=#2F85DA;gradientColor=none;" vertex="1" parent="1">
          <mxGeometry x="847" y="152" width="369" height="140" as="geometry" />
        </mxCell>
        <mxCell id="EYcOk7104BUGEE8Ki0IN-50" value="Infra" style="text;html=1;align=center;verticalAlign=middle;resizable=0;points=[];autosize=1;strokeColor=none;fillColor=none;fontSize=12;fontFamily=Helvetica;fontColor=default;" vertex="1" parent="1">
          <mxGeometry x="1178" y="126" width="50" height="30" as="geometry" />
        </mxCell>
        <mxCell id="EYcOk7104BUGEE8Ki0IN-53" style="edgeStyle=orthogonalEdgeStyle;rounded=0;orthogonalLoop=1;jettySize=auto;html=1;entryX=0;entryY=0.5;entryDx=0;entryDy=0;fontFamily=Helvetica;fontSize=12;fontColor=default;strokeColor=#990099;" edge="1" parent="1" source="EYcOk7104BUGEE8Ki0IN-51" target="EYcOk7104BUGEE8Ki0IN-52">
          <mxGeometry relative="1" as="geometry" />
        </mxCell>
        <mxCell id="EYcOk7104BUGEE8Ki0IN-54" style="edgeStyle=orthogonalEdgeStyle;rounded=0;orthogonalLoop=1;jettySize=auto;html=1;exitX=0.5;exitY=1;exitDx=0;exitDy=0;entryX=0.5;entryY=0;entryDx=0;entryDy=0;fontFamily=Helvetica;fontSize=12;fontColor=default;strokeColor=#990099;" edge="1" parent="1" source="EYcOk7104BUGEE8Ki0IN-51" target="EYcOk7104BUGEE8Ki0IN-48">
          <mxGeometry relative="1" as="geometry" />
        </mxCell>
        <mxCell id="EYcOk7104BUGEE8Ki0IN-51" value="&lt;font color=&quot;#330000&quot;&gt;AxiosHttpClient&lt;/font&gt;" style="rounded=0;whiteSpace=wrap;html=1;strokeColor=none;fontFamily=Helvetica;fontSize=12;fillColor=#FFCCFF;strokeWidth=1;" vertex="1" parent="1">
          <mxGeometry x="951" y="198" width="172" height="46" as="geometry" />
        </mxCell>
        <mxCell id="EYcOk7104BUGEE8Ki0IN-52" value="&lt;font color=&quot;#000000&quot;&gt;Axios&lt;/font&gt;" style="rounded=0;whiteSpace=wrap;html=1;strokeColor=none;fontFamily=Helvetica;fontSize=12;fillColor=#FFCCFF;strokeWidth=1;" vertex="1" parent="1">
          <mxGeometry x="1361.5" y="196" width="154" height="50" as="geometry" />
        </mxCell>
        <mxCell id="EYcOk7104BUGEE8Ki0IN-55" value="" style="rounded=0;whiteSpace=wrap;html=1;strokeColor=none;fontFamily=Helvetica;fontSize=12;fillColor=#76608A;" vertex="1" parent="1">
          <mxGeometry x="1254" y="516" width="369" height="140" as="geometry" />
        </mxCell>
        <mxCell id="EYcOk7104BUGEE8Ki0IN-56" value="Presentation" style="text;html=1;align=center;verticalAlign=middle;resizable=0;points=[];autosize=1;strokeColor=none;fillColor=none;fontSize=12;fontFamily=Helvetica;fontColor=default;" vertex="1" parent="1">
          <mxGeometry x="1544" y="490" width="90" height="30" as="geometry" />
        </mxCell>
        <mxCell id="EYcOk7104BUGEE8Ki0IN-58" style="edgeStyle=orthogonalEdgeStyle;rounded=0;orthogonalLoop=1;jettySize=auto;html=1;exitX=0;exitY=0.5;exitDx=0;exitDy=0;entryX=1;entryY=0.5;entryDx=0;entryDy=0;fontFamily=Helvetica;fontSize=12;fontColor=default;strokeColor=#342B3D;" edge="1" parent="1" source="EYcOk7104BUGEE8Ki0IN-57" target="EYcOk7104BUGEE8Ki0IN-46">
          <mxGeometry relative="1" as="geometry" />
        </mxCell>
        <mxCell id="EYcOk7104BUGEE8Ki0IN-66" style="edgeStyle=orthogonalEdgeStyle;rounded=0;orthogonalLoop=1;jettySize=auto;html=1;exitX=1;exitY=0.5;exitDx=0;exitDy=0;entryX=0;entryY=0.5;entryDx=0;entryDy=0;fontFamily=Helvetica;fontSize=12;fontColor=default;strokeColor=#342B3D;" edge="1" parent="1" source="EYcOk7104BUGEE8Ki0IN-57" target="EYcOk7104BUGEE8Ki0IN-63">
          <mxGeometry relative="1" as="geometry" />
        </mxCell>
        <mxCell id="EYcOk7104BUGEE8Ki0IN-57" value="&lt;font color=&quot;#000000&quot;&gt;Login&lt;/font&gt;" style="rounded=0;whiteSpace=wrap;html=1;strokeColor=none;fontFamily=Helvetica;fontSize=12;fillColor=#c6a7e2;strokeWidth=1;" vertex="1" parent="1">
          <mxGeometry x="1281" y="560.5" width="135.5" height="51" as="geometry" />
        </mxCell>
        <mxCell id="EYcOk7104BUGEE8Ki0IN-59" value="" style="rounded=0;whiteSpace=wrap;html=1;strokeColor=none;fontFamily=Helvetica;fontSize=12;fillColor=#FFFFCC;" vertex="1" parent="1">
          <mxGeometry x="1254" y="333" width="369" height="140" as="geometry" />
        </mxCell>
        <mxCell id="EYcOk7104BUGEE8Ki0IN-60" value="Validation" style="text;html=1;align=center;verticalAlign=middle;resizable=0;points=[];autosize=1;strokeColor=none;fillColor=none;fontSize=12;fontFamily=Helvetica;fontColor=default;" vertex="1" parent="1">
          <mxGeometry x="1556" y="370" width="80" height="30" as="geometry" />
        </mxCell>
        <mxCell id="EYcOk7104BUGEE8Ki0IN-65" style="edgeStyle=orthogonalEdgeStyle;rounded=0;orthogonalLoop=1;jettySize=auto;html=1;exitX=0.5;exitY=1;exitDx=0;exitDy=0;fontFamily=Helvetica;fontSize=12;fontColor=default;strokeColor=#00CC00;" edge="1" parent="1" source="EYcOk7104BUGEE8Ki0IN-61">
          <mxGeometry relative="1" as="geometry">
            <mxPoint x="1528.166666666667" y="557" as="targetPoint" />
          </mxGeometry>
        </mxCell>
        <mxCell id="EYcOk7104BUGEE8Ki0IN-61" value="&lt;font color=&quot;#000000&quot;&gt;EmailFieldValidation&lt;/font&gt;" style="rounded=0;whiteSpace=wrap;html=1;strokeColor=none;fontFamily=Helvetica;fontSize=12;fillColor=#FFE6CC;strokeWidth=1;" vertex="1" parent="1">
          <mxGeometry x="1450" y="381" width="155.5" height="44" as="geometry" />
        </mxCell>
        <mxCell id="EYcOk7104BUGEE8Ki0IN-64" style="edgeStyle=orthogonalEdgeStyle;rounded=0;orthogonalLoop=1;jettySize=auto;html=1;exitX=0.5;exitY=1;exitDx=0;exitDy=0;entryX=0.5;entryY=0;entryDx=0;entryDy=0;fontFamily=Helvetica;fontSize=12;fontColor=default;strokeColor=#00CC00;" edge="1" parent="1" source="EYcOk7104BUGEE8Ki0IN-62" target="EYcOk7104BUGEE8Ki0IN-63">
          <mxGeometry relative="1" as="geometry" />
        </mxCell>
        <mxCell id="EYcOk7104BUGEE8Ki0IN-62" value="&lt;font color=&quot;#000000&quot;&gt;RequiredFieldValidation&lt;/font&gt;" style="rounded=0;whiteSpace=wrap;html=1;strokeColor=none;fontFamily=Helvetica;fontSize=12;fillColor=#FFE6CC;strokeWidth=1;" vertex="1" parent="1">
          <mxGeometry x="1271" y="380" width="155.5" height="44" as="geometry" />
        </mxCell>
        <mxCell id="EYcOk7104BUGEE8Ki0IN-63" value="&lt;font color=&quot;#000000&quot;&gt;Validation&lt;/font&gt;" style="rounded=1;whiteSpace=wrap;html=1;strokeColor=none;fontFamily=Helvetica;fontSize=12;fillColor=#c6a7e2;strokeWidth=1;" vertex="1" parent="1">
          <mxGeometry x="1460" y="560.5" width="135.5" height="51" as="geometry" />
        </mxCell>
        <mxCell id="EYcOk7104BUGEE8Ki0IN-67" value="&lt;font style=&quot;font-size: 32px;&quot;&gt;CLEAN CODE REACT&lt;/font&gt;" style="text;html=1;strokeColor=none;fillColor=none;align=center;verticalAlign=middle;whiteSpace=wrap;rounded=0;fontSize=12;fontFamily=Helvetica;fontColor=default;" vertex="1" parent="1">
          <mxGeometry x="143" y="40" width="340" height="30" as="geometry" />
        </mxCell>
      </root>
    </mxGraphModel>
  </diagram>
</mxfile>
